<?xml version="1.0" standalone="no"?>
<!DOCTYPE svg PUBLIC "-//W3C//DTD SVG 20010904//EN"
 "http://www.w3.org/TR/2001/REC-SVG-20010904/DTD/svg10.dtd">
<svg version="1.0" xmlns="http://www.w3.org/2000/svg"
 width="256.000000pt" height="256.000000pt" viewBox="0 0 256.000000 256.000000"
 preserveAspectRatio="xMidYMid meet">

<g transform="translate(0.000000,256.000000) scale(0.100000,-0.100000)"
fill="#000000" stroke="none">
<path d="M1149 2423 c-103 -76 -196 -147 -208 -157 -13 -12 -39 -75 -68 -163
-26 -79 -52 -150 -57 -157 -6 -8 -98 -35 -204 -61 -154 -38 -196 -52 -210 -70
-9 -12 -46 -77 -82 -143 l-65 -121 -114 -3 c-102 -3 -115 -5 -127 -23 -12 -18
-11 -24 2 -43 15 -22 18 -22 279 -22 l265 0 16 25 c16 24 16 27 -1 45 -15 17
-31 20 -107 20 -49 0 -88 3 -86 8 34 77 106 196 122 203 12 4 100 27 196 50
96 23 184 47 194 53 13 9 38 67 75 179 l56 166 109 80 c61 44 111 79 113 78 1
-2 -18 -52 -43 -112 -28 -68 -43 -117 -39 -130 3 -11 71 -78 150 -150 80 -71
145 -133 145 -137 0 -5 -45 -8 -99 -8 -117 0 -99 12 -251 -162 l-102 -118
-113 0 c-90 0 -117 -3 -129 -16 -21 -20 -20 -37 2 -57 17 -16 93 -17 890 -17
l871 0 15 22 c13 19 14 25 2 43 -12 17 -26 20 -103 23 l-90 3 -66 98 c-71 104
-95 121 -134 95 -33 -21 -29 -45 23 -119 26 -36 44 -68 42 -71 -3 -2 -244 -3
-537 -2 l-531 3 80 93 81 92 127 0 c171 0 224 17 206 64 -3 8 -86 88 -185 177
-124 113 -178 168 -174 179 3 8 27 68 52 133 37 94 49 115 59 105 7 -7 76
-101 154 -208 78 -107 149 -201 158 -207 10 -9 52 -13 123 -13 l107 0 36 -50
c37 -51 58 -60 97 -40 30 17 23 53 -26 119 l-45 61 -113 0 -112 0 -181 248
c-230 315 -188 304 -445 115z"/>
<path d="M302 1358 c-20 -20 -14 -43 44 -167 l56 -120 167 -76 c91 -43 178
-82 193 -87 20 -7 31 -20 38 -46 6 -21 40 -135 78 -254 l67 -216 205 -191
c113 -105 215 -194 227 -197 12 -3 29 -1 39 4 10 5 97 167 193 358 l176 349
92 3 c56 2 95 7 101 15 23 29 302 579 302 595 0 10 -5 23 -12 30 -16 16 -64
15 -79 0 -6 -7 -73 -132 -149 -278 l-138 -265 -89 -5 c-50 -3 -96 -10 -104
-17 -8 -6 -86 -156 -174 -332 -88 -177 -162 -321 -165 -321 -3 0 -78 67 -166
148 l-159 149 -80 259 -80 259 -197 90 -197 90 -47 100 c-25 55 -53 108 -62
118 -17 20 -62 23 -80 5z"/>
</g>
</svg>
